<svg id="Layer_1" data-name="Layer 1" xmlns="http://www.w3.org/2000/svg" viewBox="0 0 820 200"><defs><style>.cls-1{fill:#0bb3b7;}.cls-2{fill:#16254c;}.cls-3{fill:#fff;}</style></defs><path class="cls-1" d="M798.6,23.12c-8.53-8.54-18.75-5.9-39.2.35-3.06.94-6.21,1.9-9.57,2.88-20,5.82-28.77,13-31.61,15.87l-39.4,39.41-.13.15-.08.09a5.05,5.05,0,0,0,.21,6.9l19.76,19.76,15.78-15.78a9.8,9.8,0,0,1,13.86,13.86l-15.78,15.78,20.5,20.51a5.05,5.05,0,0,0,6.9.21l.25-.22,39.4-39.4c2.84-2.83,10.06-11.58,15.88-31.6,1-3.36,1.94-6.52,2.87-9.57C804.5,41.86,807.13,31.65,798.6,23.12ZM772.81,69.84A15.34,15.34,0,1,1,777.29,59,15.27,15.27,0,0,1,772.81,69.84Z"/><path class="cls-2" d="M804.23,17.49c-12.3-12.29-26.92-7.82-47.16-1.63-3,.93-6.16,1.89-9.47,2.85-21.78,6.33-31.74,14.62-35,17.89L693.7,55.49l-13.89-4.77a5.83,5.83,0,0,0-6.14,1.34L637.15,88.58a5.82,5.82,0,0,0,8.24,8.23l23.89-23.89,3.51,3.51-.17.19a13,13,0,0,0,.57,17.78L695.76,117l-15.11,15.11a5.83,5.83,0,0,0,8.24,8.24L704,125.21l23.31,23.31a13,13,0,0,0,17.79.57l.08-.07a.94.94,0,0,0,.1-.1l3.52,3.52-23.9,23.89a5.83,5.83,0,0,0,8.24,8.24l36.51-36.52a5.79,5.79,0,0,0,1.34-6.14L766.23,128l18.89-18.89c3.27-3.27,11.56-13.22,17.89-35h0c1-3.31,1.92-6.44,2.84-9.46C812.05,44.41,816.52,29.78,804.23,17.49Zm-6,44.83c-.93,3.05-1.9,6.21-2.87,9.57-5.82,20-13,28.77-15.88,31.6l-39.4,39.4-.25.22a5.05,5.05,0,0,1-6.9-.21l-20.5-20.51,15.78-15.78a9.8,9.8,0,0,0-13.86-13.86l-15.78,15.78L678.82,88.77a5.05,5.05,0,0,1-.21-6.9l.08-.09.13-.15,39.4-39.41c2.84-2.83,11.59-10,31.61-15.87,3.36-1,6.51-1.94,9.57-2.88,20.45-6.25,30.67-8.89,39.2-.35S804.5,41.86,798.24,62.32Z"/><path class="cls-3" d="M762,51.64a7.36,7.36,0,1,0,5.21,2.16A7.34,7.34,0,0,0,762,51.64Z"/><path class="cls-2" d="M751.13,48.17a15.32,15.32,0,1,0,21.68,0A15.23,15.23,0,0,0,751.13,48.17Zm16,16a7.37,7.37,0,1,1,0-10.41,7.38,7.38,0,0,1,0,10.41Z"/><path class="cls-2" d="M649.64,19.33a13.12,13.12,0,0,1,5,5,14.52,14.52,0,0,1,1.78,7.17,14.76,14.76,0,0,1-1.78,7.21,13,13,0,0,1-5,5,15,15,0,0,1-14.34,0,12.87,12.87,0,0,1-4.94-5,14.66,14.66,0,0,1-1.79-7.21,14.42,14.42,0,0,1,1.79-7.17,13,13,0,0,1,4.94-5,14.17,14.17,0,0,1,7.21-1.81A14,14,0,0,1,649.64,19.33Zm.86,20.36a11.26,11.26,0,0,0,3.06-8.17,11.26,11.26,0,0,0-3.06-8.17,10.63,10.63,0,0,0-8-3.16,10.5,10.5,0,0,0-8,3.16,11.42,11.42,0,0,0-3,8.17,11.42,11.42,0,0,0,3,8.17,10.49,10.49,0,0,0,8,3.15A10.62,10.62,0,0,0,650.5,39.69Zm-2.68-8.27A4.66,4.66,0,0,1,645.46,33l3.84,5.7-4.32.06-3.3-5.49h-1.17v5.49h-3.57V24h6.59a5.5,5.5,0,0,1,3.75,1.23,4.28,4.28,0,0,1,1.4,3.36A4.46,4.46,0,0,1,647.82,31.42Zm-7.31-1.07h2.82a2,2,0,0,0,1.27-.41,1.41,1.41,0,0,0,.51-1.17,1.32,1.32,0,0,0-.51-1.13,2.1,2.1,0,0,0-1.27-.38h-2.82Z"/><path class="cls-2" d="M22.11,126.27q-9.39-7-10.1-19.91H36.85q.36,4.4,2.61,6.42a8.41,8.41,0,0,0,5.83,2,8.36,8.36,0,0,0,5.28-1.6,5.31,5.31,0,0,0,2.08-4.46,6.29,6.29,0,0,0-3.44-5.7A60.25,60.25,0,0,0,38,98.52a98.78,98.78,0,0,1-13.25-5.29A25.48,25.48,0,0,1,16,85.75q-3.74-4.94-3.74-12.9a23.5,23.5,0,0,1,4-13.84,25,25,0,0,1,11.17-8.74,41.68,41.68,0,0,1,16.16-3q14.63,0,23.35,6.83t9.33,19.2H51a7.46,7.46,0,0,0-2.32-5.71A8.33,8.33,0,0,0,43,65.72a6,6,0,0,0-4.28,1.55,5.69,5.69,0,0,0-1.66,4.39,5.41,5.41,0,0,0,1.84,4.1,16.87,16.87,0,0,0,4.57,3q2.74,1.26,8.08,3.15a101,101,0,0,1,13.14,5.41,27,27,0,0,1,8.91,7.48q3.74,4.82,3.74,12.19a24.68,24.68,0,0,1-3.74,13.42,25.67,25.67,0,0,1-10.82,9.39,37.67,37.67,0,0,1-16.69,3.45Q31.49,133.22,22.11,126.27Z"/><path class="cls-2" d="M113.81,67.62a24.17,24.17,0,0,1,11.77-2.73A26.21,26.21,0,0,1,140,69.05a28.52,28.52,0,0,1,10.22,11.88A41.05,41.05,0,0,1,154,99a41.46,41.46,0,0,1-3.74,18.13A28.45,28.45,0,0,1,140,129.06a26.21,26.21,0,0,1-14.44,4.16,23.82,23.82,0,0,1-11.71-2.73,20.81,20.81,0,0,1-7.78-7.37v41.11H82.8V65.72h23.29V75A19.79,19.79,0,0,1,113.81,67.62Zm13,21.21a12,12,0,0,0-17.23.06q-3.5,3.69-3.5,10.1t3.5,10.22a11.43,11.43,0,0,0,8.62,3.69,11.31,11.31,0,0,0,8.61-3.75q3.51-3.74,3.51-10.16T126.82,88.83Z"/><path class="cls-2" d="M191.68,68.45a23.12,23.12,0,0,1,12-3.32V90h-6.53q-7.6,0-11.29,3t-3.68,10.34v29.12h-23.3V65.72h23.3V77.48A30.33,30.33,0,0,1,191.68,68.45Z"/><path class="cls-2" d="M213.31,56.16a11,11,0,0,1-3.74-8.5A11.28,11.28,0,0,1,213.31,39q3.75-3.43,9.92-3.44A14,14,0,0,1,233,39a11.31,11.31,0,0,1,3.74,8.68,11,11,0,0,1-3.74,8.5,14.11,14.11,0,0,1-9.81,3.38Q217.05,59.54,213.31,56.16Zm21.45,9.56v66.67H211.47V65.72Z"/><path class="cls-2" d="M304.44,72.79q6.76,7.67,6.77,20.74v38.86H287.92V96.62c0-3.81-1-6.79-3-9a10.26,10.26,0,0,0-8-3.26,10.54,10.54,0,0,0-8.2,3.26c-2,2.19-3,5.17-3,9v35.77H242.53V65.72h23.29v9.51a23,23,0,0,1,8.32-7.31,25.07,25.07,0,0,1,12-2.79Q297.66,65.13,304.44,72.79Z"/><path class="cls-2" d="M356.34,67.62A19.79,19.79,0,0,1,364.13,75V65.72h23.29v65.95a39.13,39.13,0,0,1-3.57,16.94,27.57,27.57,0,0,1-11.11,12.06q-7.55,4.52-19.07,4.52-15.45,0-24.72-7.25t-10.57-19.73h22.93a7.63,7.63,0,0,0,3.57,5,13.67,13.67,0,0,0,7.36,1.78q11.88,0,11.89-13.31v-8.55a19.79,19.79,0,0,1-7.79,7.37,24.5,24.5,0,0,1-11.82,2.73,26.19,26.19,0,0,1-14.44-4.16,28.38,28.38,0,0,1-10.22-11.94A41.46,41.46,0,0,1,316.12,99a41.05,41.05,0,0,1,3.74-18.06,28.45,28.45,0,0,1,10.22-11.88,26.19,26.19,0,0,1,14.44-4.16A24.5,24.5,0,0,1,356.34,67.62Zm4.28,21.27a12.06,12.06,0,0,0-17.29-.06q-3.45,3.63-3.45,10.16t3.45,10.16A11.29,11.29,0,0,0,352,112.9a11.42,11.42,0,0,0,8.61-3.69q3.51-3.67,3.51-10.22T360.62,88.89Z"/><path class="cls-2" d="M426.2,67.62A24.15,24.15,0,0,1,438,64.89a26.19,26.19,0,0,1,14.44,4.16,28.38,28.38,0,0,1,10.22,11.88A40.91,40.91,0,0,1,466.36,99a41.32,41.32,0,0,1-3.74,18.13,28.31,28.31,0,0,1-10.22,11.94A26.19,26.19,0,0,1,438,133.22a23.78,23.78,0,0,1-11.7-2.73,20.81,20.81,0,0,1-7.78-7.37v41.11h-23.3V65.72h23.3V75A19.79,19.79,0,0,1,426.2,67.62Zm13,21.21a12,12,0,0,0-17.23.06q-3.51,3.69-3.5,10.1t3.5,10.22a11.84,11.84,0,0,0,17.23-.06q3.51-3.74,3.51-10.16T439.21,88.83Z"/><path class="cls-2" d="M487.29,129.06a30.65,30.65,0,0,1-12.41-11.88A35.3,35.3,0,0,1,470.36,99a34.78,34.78,0,0,1,4.58-18.06,30.93,30.93,0,0,1,12.47-11.88,40.53,40.53,0,0,1,35.77,0,31,31,0,0,1,12.48,11.88A34.78,34.78,0,0,1,540.24,99a35.11,35.11,0,0,1-4.58,18.13,30.8,30.8,0,0,1-12.54,11.94,40.66,40.66,0,0,1-35.83,0Zm26-19.67q3.27-3.61,3.27-10.4t-3.27-10.33a10.45,10.45,0,0,0-8-3.57,10.27,10.27,0,0,0-8,3.57q-3.21,3.56-3.21,10.33t3.09,10.46a10,10,0,0,0,8,3.57A10.5,10.5,0,0,0,513.32,109.39Z"/><path class="cls-2" d="M548,80.93a28.27,28.27,0,0,1,10.27-11.88,26.48,26.48,0,0,1,14.5-4.16,24.17,24.17,0,0,1,11.47,2.67,20.14,20.14,0,0,1,7.9,7.31V44.45h23.41v87.94H592.12v-9.27a19.79,19.79,0,0,1-7.72,7.37,24.17,24.17,0,0,1-11.77,2.73,26.15,26.15,0,0,1-14.43-4.16A28.31,28.31,0,0,1,548,117.12,41.32,41.32,0,0,1,544.23,99,40.91,40.91,0,0,1,548,80.93Zm40.76,8a12.06,12.06,0,0,0-17.29-.06Q568,92.46,568,99t3.45,10.16a11.25,11.25,0,0,0,8.67,3.75,11.43,11.43,0,0,0,8.62-3.69q3.5-3.67,3.5-10.22T588.74,88.89Z"/></svg>